<?xml version="1.0" standalone="no"?>
<!DOCTYPE svg PUBLIC "-//W3C//DTD SVG 20010904//EN"
 "http://www.w3.org/TR/2001/REC-SVG-20010904/DTD/svg10.dtd">
<svg version="1.0" xmlns="http://www.w3.org/2000/svg"
 width="1719.000000pt" height="1719.000000pt" viewBox="0 0 1719.000000 1719.000000"
 preserveAspectRatio="xMidYMid meet">
<metadata>
Created by potrace 1.14, written by Peter Selinger 2001-2017
</metadata>
<g transform="translate(0.000000,1719.000000) scale(0.100000,-0.100000)"
fill="#000000" stroke="none">
<path d="M8480 16243 c-295 -15 -583 -63 -935 -153 -110 -29 -216 -56 -235
-61 -19 -5 -73 -23 -120 -39 -47 -17 -146 -51 -220 -76 -119 -40 -234 -85
-337 -130 -17 -8 -34 -14 -38 -14 -35 0 -474 -211 -562 -270 -24 -17 -46 -30
-49 -30 -3 0 -65 -39 -137 -87 -141 -93 -234 -164 -334 -253 -34 -30 -101 -89
-149 -130 -48 -41 -202 -189 -342 -327 -168 -167 -261 -253 -274 -253 -12 0
-40 -20 -65 -47 -46 -51 -50 -59 -31 -65 9 -3 8 -11 -5 -29 -62 -87 -167 -238
-224 -321 -36 -54 -73 -100 -83 -103 -15 -5 -90 -105 -90 -121 0 -3 -26 -49
-59 -102 -32 -54 -87 -151 -122 -217 -34 -66 -70 -131 -79 -145 -10 -14 -41
-79 -70 -145 -29 -66 -59 -129 -66 -140 -7 -11 -25 -51 -39 -90 -14 -38 -37
-97 -52 -130 -51 -118 -106 -284 -127 -385 -9 -41 -27 -127 -40 -190 -13 -63
-27 -140 -31 -170 -3 -30 -13 -90 -21 -133 -8 -44 -11 -90 -8 -104 4 -14 2
-28 -4 -32 -33 -20 -52 -965 -33 -1626 15 -515 -3 -983 -59 -1565 -11 -119
-13 -184 -4 -193 10 -10 11 -101 2 -114 -6 -7 -7 -41 -4 -75 20 -205 27 -623
17 -933 -14 -418 -14 -1298 -1 -1384 12 -71 18 -311 8 -326 -4 -6 -9 -42 -13
-80 -3 -39 -9 -95 -12 -125 -3 -30 -6 -109 -7 -175 -1 -66 -5 -128 -10 -138
-5 -9 -6 -26 -3 -37 3 -11 1 -23 -5 -26 -7 -4 -8 -38 -4 -94 5 -62 4 -90 -4
-95 -7 -4 -10 -29 -9 -59 1 -29 0 -57 -4 -63 -4 -6 -9 -48 -11 -94 -3 -46 -8
-92 -11 -101 -4 -9 -5 -46 -3 -82 3 -65 3 -66 -25 -72 -36 -8 -67 19 -67 57 0
38 -68 79 -130 79 -37 0 -47 -5 -81 -42 -52 -58 -76 -111 -110 -248 -53 -219
-54 -230 -53 -645 0 -372 2 -398 27 -565 15 -96 34 -202 41 -235 46 -195 70
-336 58 -346 -9 -9 -105 -29 -137 -29 -20 0 -26 7 -36 42 -6 24 -38 126 -70
228 -33 102 -59 189 -59 194 0 5 -13 44 -30 85 -16 42 -43 114 -61 161 -104
279 -138 359 -253 590 -191 386 -268 500 -379 563 -67 37 -147 14 -181 -52
-22 -41 -30 -238 -16 -371 14 -144 28 -198 95 -385 45 -127 85 -218 220 -510
8 -16 55 -127 106 -245 50 -118 115 -261 145 -318 30 -57 54 -109 54 -116 0
-27 -42 -66 -103 -94 -106 -50 -97 -52 -163 34 -101 131 -134 177 -179 245
-105 159 -198 282 -523 694 -90 114 -281 301 -344 336 -33 19 -72 44 -88 57
-33 26 -110 52 -157 52 -22 0 -43 -10 -65 -29 l-33 -29 0 -120 c1 -136 10
-172 87 -352 76 -175 166 -335 264 -474 136 -191 213 -290 289 -377 142 -160
353 -424 401 -502 33 -53 35 -60 24 -92 -6 -19 -15 -37 -20 -40 -15 -9 -247
79 -440 166 -308 140 -631 265 -658 254 -22 -8 -6 -20 66 -44 35 -12 122 -48
195 -80 73 -32 148 -64 167 -71 41 -16 174 -74 315 -137 55 -25 127 -54 160
-65 33 -11 88 -30 122 -44 88 -35 98 -33 117 23 25 73 21 93 -36 174 -89 127
-278 363 -384 478 -65 71 -104 123 -322 426 -66 92 -180 299 -244 445 -60 134
-95 288 -84 362 8 54 44 98 79 98 35 0 106 -27 141 -53 17 -13 58 -40 91 -59
62 -38 246 -219 322 -318 23 -30 79 -102 125 -160 126 -159 229 -295 269 -353
183 -266 353 -497 384 -520 27 -20 184 52 231 107 46 54 44 66 -55 256 -21 41
-55 113 -76 160 -20 47 -43 99 -50 115 -7 17 -27 64 -44 105 -18 41 -41 98
-53 125 -12 28 -55 122 -95 209 -105 225 -179 432 -208 582 -22 116 -21 406 2
445 21 36 62 53 104 44 43 -10 120 -83 179 -170 60 -90 55 -80 193 -358 119
-239 159 -327 202 -447 13 -36 39 -104 59 -151 19 -47 46 -126 60 -175 14 -49
57 -183 96 -297 38 -114 70 -215 70 -223 0 -8 7 -28 15 -45 15 -27 19 -29 58
-23 105 15 174 39 182 63 2 9 -11 95 -30 191 -73 362 -92 494 -107 764 -13
253 0 578 31 723 57 268 88 333 157 333 49 0 77 -22 123 -98 64 -107 89 -171
125 -318 54 -220 76 -367 76 -506 0 -35 11 -171 25 -303 14 -132 25 -271 25
-310 0 -38 9 -154 19 -257 25 -249 21 -239 269 -553 139 -176 292 -433 292
-491 0 -15 -20 -40 -59 -75 -66 -58 -73 -87 -9 -40 92 68 128 111 182 221 121
245 298 414 576 550 73 36 92 41 135 37 62 -5 122 -33 149 -70 19 -25 21 -42
20 -145 0 -82 -5 -130 -17 -159 -21 -57 -98 -181 -157 -257 -26 -34 -57 -80
-69 -103 -11 -23 -25 -45 -31 -48 -9 -6 -60 -80 -125 -185 -58 -94 -85 -329
-65 -582 31 -414 27 -467 -50 -585 -44 -69 -46 -73 -27 -73 28 0 88 98 109
177 21 85 21 163 -2 468 -12 158 -6 405 11 465 30 104 162 307 180 278 5 -7 9
-69 9 -138 0 -287 55 -1108 81 -1212 l10 -38 104 0 104 0 3 248 c5 384 72
1007 109 1007 11 0 16 -21 21 -90 29 -371 70 -649 152 -1020 l31 -140 593 -3
c470 -2 592 0 592 10 0 7 -5 30 -10 50 -6 20 -19 88 -30 150 -10 62 -30 174
-45 248 -14 74 -34 189 -45 255 -10 66 -25 151 -34 190 -19 82 -19 85 -6 85 5
0 23 -27 40 -59 28 -56 107 -171 118 -171 12 0 -11 65 -33 92 -14 16 -41 61
-61 101 -19 39 -43 82 -53 96 -31 45 -82 236 -111 416 -6 39 -27 144 -45 235
-19 91 -39 197 -44 237 -6 39 -15 83 -20 96 -9 23 -16 98 -41 457 -14 196 -20
524 -10 540 6 10 22 5 65 -16 81 -41 91 -54 70 -94 l-16 -31 23 12 c13 6 32
20 43 29 11 10 94 57 185 105 91 48 170 91 177 97 35 28 132 80 158 85 35 6
123 -29 131 -52 4 -9 -2 -26 -14 -38 -42 -46 -62 -105 -73 -214 -14 -133 -6
-456 15 -613 9 -63 20 -158 26 -210 28 -251 132 -665 201 -802 11 -21 19 -45
19 -55 0 -29 56 -139 75 -146 33 -13 36 -7 13 26 -36 49 -41 60 -129 313 -37
108 -99 346 -99 382 0 10 -7 45 -16 77 -9 33 -17 92 -19 130 -5 99 -15 192
-25 250 -5 28 -17 141 -25 252 -13 160 -14 223 -5 308 19 188 29 225 82 295
62 83 146 239 277 510 33 69 53 77 228 86 103 5 130 4 139 -7 25 -31 46 -311
24 -324 -10 -6 -60 30 -129 92 -34 31 -61 42 -61 25 0 -17 109 -113 180 -159
184 -119 545 -267 738 -303 112 -20 298 -86 319 -112 28 -34 53 -94 77 -180
34 -125 34 -144 -3 -162 -16 -9 -45 -34 -63 -56 -47 -54 -45 -54 -288 12 -131
36 -129 32 -91 113 32 67 32 67 66 62 19 -3 62 -22 95 -41 34 -20 68 -36 76
-36 29 0 13 26 -36 58 -133 87 -199 82 -231 -17 -7 -20 -20 -54 -29 -76 -10
-22 -32 -78 -50 -125 -17 -47 -37 -94 -44 -105 -7 -11 -25 -51 -40 -90 -40
-102 -79 -159 -172 -255 -45 -47 -91 -99 -101 -117 -18 -30 -42 -59 -159 -191
-28 -31 -58 -70 -66 -87 -8 -16 -40 -73 -70 -125 -31 -53 -75 -134 -98 -180
-43 -87 -143 -230 -161 -230 -5 0 -9 -4 -9 -10 0 -16 22 -12 35 7 21 28 35 5
35 -58 0 -61 39 -231 84 -371 43 -131 107 -247 169 -305 80 -76 124 -81 192
-22 39 35 58 30 69 -18 4 -14 15 -44 26 -67 22 -47 59 -140 84 -209 13 -33 23
-47 36 -47 23 0 20 9 -63 205 -91 216 -88 196 -36 253 24 28 60 71 79 97 19
26 57 73 84 104 27 31 54 67 60 81 21 47 68 120 77 120 13 0 11 -33 -6 -136
-23 -135 -57 -464 -62 -601 -5 -117 -5 -123 14 -123 19 0 20 10 26 140 10 206
50 574 87 788 6 32 21 68 38 90 15 21 34 51 42 67 8 17 30 52 48 78 30 42 38
48 61 42 14 -4 27 -8 29 -10 2 -2 -3 -66 -12 -142 -8 -76 -20 -246 -26 -378
-6 -132 -15 -285 -20 -340 -6 -55 -10 -153 -10 -217 0 -109 1 -118 19 -118 23
0 26 39 41 435 6 143 17 352 26 465 9 113 20 257 24 320 9 128 23 222 40 278
9 29 88 205 150 332 8 16 87 27 101 13 18 -18 49 -366 53 -598 2 -93 8 -235
14 -315 6 -80 16 -246 22 -370 18 -393 39 -564 69 -557 9 2 15 7 15 13 -5 28
-24 225 -33 329 -6 66 -16 242 -22 390 -6 149 -15 292 -20 318 -10 54 -12 131
-3 164 4 16 19 24 57 34 29 6 74 20 100 30 26 11 51 19 56 19 13 0 30 -101 46
-280 8 -91 17 -176 20 -190 2 -14 11 -122 20 -240 8 -118 20 -256 25 -307 6
-50 10 -135 10 -187 0 -96 0 -96 25 -96 23 0 25 3 25 48 0 27 -4 84 -9 128 -6
43 -15 149 -21 234 -25 336 -41 507 -51 544 -7 26 -7 42 -1 48 11 11 48 -53
82 -145 27 -71 124 -253 158 -295 28 -35 102 -132 128 -169 13 -19 14 -25 1
-50 -8 -15 -27 -64 -42 -108 -15 -44 -42 -110 -61 -147 -40 -78 -45 -111 -8
-53 30 48 50 91 99 210 20 50 41 94 45 98 4 5 22 1 40 -8 46 -24 137 -22 187
4 53 27 163 135 198 195 16 27 32 70 36 95 10 64 -6 199 -38 309 -31 112 -33
105 85 280 144 212 213 317 225 342 13 26 16 32 103 166 28 44 61 98 72 120
11 21 36 63 55 93 20 29 46 79 58 110 12 31 49 119 81 195 91 217 106 272 118
431 5 77 10 156 10 177 0 31 4 37 31 47 18 6 66 11 107 11 92 0 142 -21 220
-92 30 -26 57 -48 62 -48 21 0 17 -79 -11 -245 -17 -99 -35 -222 -39 -272 -5
-51 -11 -105 -14 -120 -15 -71 -28 -205 -36 -393 -5 -113 -14 -299 -19 -415
-6 -115 -15 -340 -21 -500 -11 -315 -27 -638 -36 -752 l-6 -73 380 0 380 0 21
62 c42 133 103 362 132 499 16 79 36 172 44 207 22 91 84 457 101 592 20 151
58 347 70 360 12 12 14 9 14 -25 0 -22 -7 -85 -15 -140 -9 -55 -24 -161 -35
-235 -63 -446 -162 -901 -271 -1244 -11 -33 -19 -63 -19 -68 0 -4 92 -8 204
-8 l204 0 7 43 c3 23 17 82 30 132 36 134 72 288 90 390 9 50 27 142 40 205
13 63 33 169 45 235 12 66 25 134 30 150 4 17 11 42 14 58 4 15 11 27 16 27
13 0 13 -38 0 -92 -5 -24 -14 -97 -19 -163 -15 -178 4 -329 56 -428 35 -69
154 -234 198 -277 74 -71 185 -223 185 -254 0 -17 5 -26 16 -26 14 0 16 8 12
45 -6 52 -48 111 -170 239 -143 151 -241 316 -258 437 -13 87 -11 240 3 379
15 147 6 447 -16 505 -62 164 -86 220 -134 314 -31 58 -61 113 -67 121 -7 8
-56 103 -108 210 -84 170 -124 272 -198 505 -5 17 -19 83 -30 148 -25 149 -20
219 21 259 24 25 35 28 91 28 106 0 131 -12 236 -113 52 -51 120 -126 152
-167 95 -124 213 -310 253 -400 73 -160 102 -214 124 -227 19 -13 23 -12 40 6
11 12 35 51 55 88 72 135 169 293 179 293 4 0 9 8 13 18 3 9 20 36 38 59 112
142 162 211 173 238 18 43 43 211 50 340 11 208 45 537 75 730 10 66 24 158
31 205 37 266 153 618 222 676 36 30 41 30 103 -5 63 -37 74 -53 113 -172 45
-138 53 -213 52 -529 -1 -353 -25 -540 -126 -1000 -8 -36 -21 -110 -30 -165
-8 -55 -18 -116 -21 -136 l-6 -36 53 -6 c30 -2 110 -17 179 -33 177 -40 189
-39 218 13 13 24 31 71 41 105 10 35 32 90 49 124 34 67 135 365 206 604 42
143 90 270 130 345 9 17 16 35 16 41 0 16 108 180 198 299 132 177 251 287
374 346 47 22 47 22 88 4 35 -16 47 -30 76 -87 19 -37 34 -75 34 -84 0 -57
-148 -559 -213 -724 -27 -69 -53 -140 -59 -158 -5 -18 -39 -94 -75 -170 -36
-75 -80 -172 -99 -214 -18 -43 -45 -95 -59 -115 -14 -21 -25 -41 -25 -46 0 -4
-20 -38 -44 -75 -24 -37 -64 -107 -89 -157 -25 -49 -57 -107 -72 -129 -14 -21
-25 -39 -23 -41 2 -1 35 -30 73 -65 39 -34 103 -85 144 -112 71 -49 74 -50 91
-32 9 11 59 66 112 124 52 58 125 135 161 172 37 37 67 72 67 77 0 16 314 322
410 399 52 42 97 79 100 83 7 10 260 135 290 144 14 4 30 11 35 15 6 4 36 17
68 30 41 16 57 28 57 41 0 21 -9 23 -42 10 -267 -108 -405 -179 -501 -260
-118 -98 -310 -280 -389 -368 -61 -69 -130 -143 -339 -366 l-56 -60 -74 51
c-41 28 -91 68 -112 89 l-37 39 54 99 c30 55 77 136 104 180 28 44 54 89 58
100 4 11 16 32 26 47 10 15 32 58 47 95 16 37 51 115 79 173 79 167 102 218
102 228 0 5 20 56 44 114 24 58 60 156 79 219 53 173 147 533 147 565 0 16
-16 62 -36 102 -86 174 -215 159 -432 -52 -121 -118 -345 -420 -382 -516 -7
-19 -16 -39 -20 -45 -13 -18 -78 -178 -93 -230 -80 -264 -119 -373 -135 -379
-9 -3 -22 -8 -28 -11 -8 -4 -13 41 -18 147 -4 84 -12 159 -18 166 -6 6 -14 74
-19 150 -5 75 -15 187 -23 247 -8 61 -17 130 -20 155 -6 46 -13 90 -21 125 -2
11 -7 49 -10 85 -3 36 -12 101 -20 145 -7 44 -23 154 -35 245 -11 91 -28 197
-36 235 -8 39 -14 93 -14 122 0 28 -4 54 -9 57 -4 3 -11 27 -14 53 -3 27 -15
104 -27 173 -11 69 -25 168 -31 220 -5 52 -17 148 -25 212 -20 154 -19 306 1
354 9 22 15 67 15 117 0 44 4 107 10 141 5 33 14 104 20 156 5 52 19 154 30
225 11 72 25 184 30 250 5 66 14 152 20 190 6 39 15 162 20 275 5 113 14 259
19 325 31 372 40 1313 20 1965 -6 190 -12 489 -13 665 -4 493 -25 1378 -36
1490 -5 55 -16 136 -25 180 -8 44 -15 101 -15 126 0 99 -108 572 -151 659 -4
8 -17 51 -30 95 -12 44 -46 139 -75 210 -74 185 -84 208 -99 225 -7 8 -25 38
-40 65 -15 28 -36 59 -46 71 -11 11 -19 27 -19 35 0 9 -20 37 -45 64 -24 27
-47 61 -50 75 -3 15 -32 56 -63 92 -64 74 -265 326 -271 340 -5 15 -419 420
-445 437 -14 9 -75 62 -138 118 -171 155 -192 172 -328 273 -26 19 -81 61
-122 92 -41 32 -92 68 -114 81 -21 12 -57 34 -78 47 -113 71 -635 336 -696
355 -14 4 -61 22 -105 40 -277 116 -612 223 -915 291 -215 48 -248 55 -390 74
-79 11 -151 22 -160 25 -30 9 -279 35 -440 45 -145 9 -861 11 -1010 3z m-2495
-2114 c-4 -12 -29 -51 -55 -88 -26 -36 -65 -97 -85 -136 -21 -38 -46 -81 -55
-95 -49 -73 -204 -450 -264 -644 -59 -192 -149 -577 -175 -751 -52 -345 -63
-555 -59 -1053 2 -328 0 -432 -9 -432 -9 0 -22 21 -28 50 -1 3 -5 97 -9 210
-13 335 12 819 60 1180 14 106 81 420 124 585 10 39 28 108 40 155 20 81 114
347 160 455 71 166 183 369 255 465 19 25 44 62 56 83 25 41 55 52 44 16z
m2934 -301 c1 -134 6 -317 11 -408 5 -91 10 -219 10 -285 0 -162 41 -666 80
-985 11 -85 28 -245 40 -355 21 -215 40 -375 70 -605 11 -80 27 -203 36 -275
8 -71 22 -159 29 -195 15 -68 34 -177 65 -370 40 -243 74 -390 92 -390 12 0 9
27 -13 120 -20 87 -49 245 -74 406 -8 50 -21 122 -30 160 -29 130 -63 381
-100 729 -14 132 -29 278 -35 325 -5 47 -12 123 -16 170 -3 47 -14 155 -24
240 -37 302 -52 466 -56 585 -1 66 -7 185 -13 265 -6 80 -13 264 -17 410 -3
146 -10 292 -15 324 -4 32 -5 65 -1 73 12 21 30 -89 42 -257 40 -570 81 -996
105 -1090 17 -64 48 -246 65 -375 21 -162 95 -534 145 -725 19 -74 53 -209 75
-300 48 -201 70 -286 104 -410 14 -52 60 -225 101 -385 85 -330 108 -408 124
-413 13 -4 14 31 2 75 -5 18 -17 106 -26 195 -9 90 -25 246 -36 348 -11 102
-26 343 -34 535 -8 193 -19 429 -25 525 -20 317 -50 738 -70 975 -5 66 -15
185 -20 265 -6 80 -15 203 -21 274 -8 96 -8 131 1 140 16 15 24 2 116 -177 72
-140 172 -362 264 -582 21 -49 57 -133 80 -185 23 -52 53 -122 65 -155 13 -33
35 -88 50 -123 33 -79 82 -211 157 -427 113 -323 148 -428 148 -445 0 -28
-157 -165 -294 -255 -91 -61 -71 -72 56 -29 82 27 218 109 240 144 7 11 18 20
24 20 13 0 34 -43 34 -68 0 -10 4 -22 9 -28 8 -8 92 -283 120 -391 6 -24 16
-61 21 -83 15 -58 30 -49 30 18 0 96 31 109 71 30 12 -24 54 -97 94 -163 40
-66 89 -150 109 -187 20 -37 41 -70 46 -73 27 -17 0 396 -55 838 -8 67 -19
163 -26 212 -6 50 -17 130 -25 179 -23 148 -29 134 103 268 64 65 124 118 133
118 15 0 42 -55 98 -200 12 -30 50 -129 86 -220 35 -91 84 -232 110 -315 26
-82 55 -172 66 -200 10 -27 33 -102 50 -165 17 -63 40 -142 50 -175 26 -85 63
-223 114 -423 24 -96 48 -177 52 -182 5 -5 41 2 81 16 67 22 74 23 113 9 66
-23 107 -52 212 -150 53 -49 113 -105 134 -122 l37 -33 -6 -99 c-3 -54 -11
-127 -16 -162 -6 -35 -20 -143 -32 -239 -11 -96 -41 -294 -65 -440 -25 -146
-49 -292 -54 -325 -6 -33 -16 -94 -24 -135 -7 -41 -30 -163 -50 -270 -20 -107
-49 -236 -65 -287 -38 -123 -29 -133 47 -53 26 27 85 72 131 100 82 50 109 69
174 121 69 56 95 57 77 3 -5 -16 -19 -112 -30 -214 -12 -102 -25 -212 -30
-245 -21 -145 -52 -335 -70 -428 -11 -56 -20 -113 -20 -126 0 -13 -11 -74 -24
-135 -13 -61 -29 -145 -35 -186 -33 -210 -102 -538 -127 -601 -54 -134 -257
-431 -371 -542 -110 -107 -285 -238 -411 -307 -20 -12 -66 -39 -102 -60 -36
-22 -87 -51 -115 -64 -97 -47 -271 -126 -277 -126 -20 0 -256 -108 -493 -225
-283 -140 -486 -235 -595 -280 -36 -14 -121 -53 -190 -85 -313 -146 -391 -169
-523 -150 -89 13 -223 54 -285 87 -52 28 -131 58 -362 138 -193 67 -365 131
-495 183 -55 22 -165 66 -245 97 -174 69 -478 200 -525 227 -11 7 -105 56
-210 111 -104 54 -203 107 -220 118 -367 234 -469 311 -533 401 -15 20 -54 70
-87 111 -58 71 -84 109 -160 239 -34 59 -82 192 -115 320 -10 40 -30 105 -44
143 -50 141 -145 618 -205 1035 -45 310 -51 380 -29 380 6 0 36 -23 67 -51 31
-28 80 -72 109 -98 30 -25 80 -72 113 -103 32 -32 60 -54 60 -50 2 10 0 17
-28 112 -14 47 -33 132 -43 190 -11 58 -31 168 -45 245 -52 282 -83 685 -102
1303 -5 196 8 585 22 658 6 27 96 68 134 61 112 -20 202 -41 267 -63 43 -14
81 -21 86 -16 4 4 10 71 13 147 9 241 44 621 75 815 10 63 23 156 29 205 29
223 52 360 102 610 61 309 68 338 108 477 21 73 46 165 56 203 15 63 30 114
97 340 59 199 263 744 288 769 24 24 21 -15 -13 -151 -47 -190 -87 -401 -122
-646 -8 -56 -22 -149 -31 -207 -9 -58 -16 -150 -15 -205 1 -106 -21 -320 -33
-333 -4 -4 -17 4 -28 18 -51 64 -98 110 -112 110 -27 0 -18 -14 60 -99 l76
-82 1 -82 c1 -62 -25 -467 -46 -722 -8 -91 56 -640 78 -676 3 -4 25 -6 49 -3
67 10 123 -21 236 -131 54 -52 103 -95 109 -95 6 0 17 -13 26 -30 9 -16 19
-30 24 -30 5 0 12 55 16 123 8 135 9 142 54 407 49 292 53 310 78 409 12 51
23 104 23 117 0 43 27 39 114 -19 106 -70 164 -100 273 -138 130 -45 126 -44
121 -28 -2 8 -35 30 -72 49 -126 66 -310 191 -365 248 -19 20 -30 40 -27 50 3
9 10 37 16 62 6 25 18 65 27 90 15 44 36 116 86 295 14 50 48 158 77 240 28
83 67 196 86 253 18 57 49 140 68 185 18 45 39 100 46 122 7 22 38 103 70 180
32 77 79 192 104 257 25 64 73 170 106 236 88 179 99 176 70 -19 -56 -371 -98
-845 -103 -1134 -4 -284 19 -898 44 -1175 20 -229 90 -619 138 -771 16 -52 33
-112 37 -134 6 -25 15 -40 24 -40 16 0 21 35 40 315 31 463 105 1086 176 1475
19 105 42 233 50 285 8 52 24 145 34 205 11 61 24 142 29 180 73 550 171 1127
227 1345 26 100 41 172 69 330 22 126 46 210 58 210 2 0 5 -109 6 -242z
m-4129 -42 c0 -7 -9 -25 -20 -39 -11 -14 -38 -65 -61 -114 -22 -48 -49 -105
-60 -125 -53 -102 -237 -613 -309 -858 -12 -41 -46 -152 -76 -246 -30 -95 -65
-225 -79 -290 -57 -268 -85 -416 -105 -539 -11 -71 -27 -170 -35 -220 -20
-124 -53 -472 -66 -700 -10 -176 -9 -842 1 -874 3 -7 0 -15 -6 -18 -29 -10
-34 64 -34 461 1 532 24 889 85 1276 30 185 123 656 135 680 4 8 13 40 19 70
7 30 30 109 51 175 21 66 50 161 65 210 14 50 53 171 86 270 33 99 69 212 80
250 11 39 45 126 76 195 30 69 71 161 91 205 19 44 43 91 52 105 9 14 33 51
54 83 35 55 56 71 56 43z m8297 -417 c40 -81 113 -290 144 -413 72 -288 97
-374 136 -470 14 -32 35 -109 49 -170 13 -61 32 -149 42 -196 54 -243 77 -509
77 -890 0 -535 -42 -942 -126 -1205 -10 -33 -30 -103 -43 -155 -13 -52 -29
-96 -36 -98 -9 -3 -11 6 -7 34 3 22 15 118 27 214 12 96 25 192 31 212 13 52
37 368 50 663 11 253 7 529 -11 730 -6 61 -15 162 -20 225 -16 181 -57 439
-100 630 -5 25 -16 79 -24 120 -12 65 -64 266 -112 440 -9 30 -20 71 -24 90
-5 19 -30 86 -55 148 -25 62 -45 119 -45 128 0 28 24 9 47 -37z m-7388 -574
c-85 -299 -126 -533 -136 -772 -5 -135 -9 -163 -21 -163 -13 0 -14 26 -9 198
3 108 10 217 16 242 6 25 15 72 21 105 43 234 140 559 161 538 4 -4 -10 -71
-32 -148z m4973 -347 c41 -73 81 -149 88 -168 8 -19 40 -88 72 -152 32 -64 58
-120 58 -123 0 -3 16 -41 36 -83 20 -42 44 -98 54 -123 10 -26 28 -62 39 -80
33 -54 27 -75 -37 -138 -31 -31 -81 -84 -111 -119 -65 -76 -73 -73 -90 43 -37
246 -86 529 -94 541 -2 5 -12 54 -21 109 -16 91 -37 190 -71 333 -11 43 -11
92 0 92 1 0 36 -60 77 -132z m3311 -346 c32 -118 39 -152 71 -342 37 -220 50
-314 71 -515 44 -420 71 -1105 44 -1078 -7 7 -14 39 -16 70 -1 32 -7 150 -13
263 -6 113 -15 279 -20 370 -21 387 -98 951 -164 1198 -13 50 -22 93 -19 96
14 13 32 -11 46 -62z m-783 -1270 c0 -132 -34 -559 -59 -752 -6 -41 -15 -115
-21 -165 -41 -329 -115 -753 -134 -773 -4 -3 -11 -1 -17 5 -10 10 -2 66 47
324 7 41 21 143 30 225 9 82 20 174 24 204 52 392 73 603 91 887 12 193 14
207 29 198 6 -4 10 -65 10 -153z m441 -2665 c51 -45 77 -117 90 -243 28 -281
-72 -556 -267 -727 -36 -31 -45 -36 -50 -23 -7 19 16 153 56 321 49 209 68
315 90 504 11 101 23 188 26 193 8 13 17 9 55 -25z m-9401 -104 c0 -26 4 -97
10 -157 5 -61 14 -183 20 -271 6 -88 22 -254 36 -370 25 -223 30 -310 15 -319
-15 -10 -151 156 -151 184 0 10 -7 23 -15 30 -8 6 -17 22 -21 33 -3 12 -17 46
-31 76 -58 129 -77 298 -52 467 12 75 54 174 124 289 13 22 29 50 36 63 19 35
29 26 29 -25z m8706 -1915 c-4 -29 -11 -100 -16 -158 -4 -58 -15 -161 -23
-230 -24 -197 -38 -334 -48 -480 -5 -74 -13 -171 -19 -215 -5 -44 -17 -143
-25 -220 -9 -77 -27 -205 -40 -285 -13 -80 -29 -191 -35 -248 -6 -57 -13 -109
-15 -115 -3 -7 -9 -41 -14 -77 -16 -109 -41 -254 -47 -272 -3 -10 -10 -18 -16
-18 -11 0 -8 42 11 160 6 36 23 148 36 250 14 102 27 192 30 200 8 25 45 315
65 510 19 175 28 273 49 540 21 253 74 679 88 703 2 4 9 7 15 7 7 0 8 -17 4
-52z m-7712 -1465 c13 -614 26 -857 67 -1238 11 -99 26 -250 34 -335 8 -85 22
-216 30 -290 8 -74 22 -196 30 -270 32 -302 43 -384 94 -685 12 -68 78 -376
97 -449 10 -38 12 -62 6 -68 -16 -16 -28 18 -57 162 -14 74 -37 178 -50 231
-29 115 -76 400 -105 634 -11 94 -29 245 -40 337 -12 92 -25 211 -30 265 -5
54 -22 224 -39 378 -17 154 -35 325 -41 380 -19 186 -32 499 -33 850 -2 327 1
375 22 375 5 0 11 -125 15 -277z m2638 -449 c170 -67 285 -109 353 -131 105
-33 302 -106 355 -130 71 -33 172 -71 235 -88 28 -7 64 -19 80 -25 17 -7 74
-14 127 -17 l97 -6 133 53 c73 29 189 80 258 113 69 33 152 70 185 82 60 23
305 137 379 176 24 13 42 17 48 11 6 -6 1 -72 -13 -183 -18 -148 -21 -207 -17
-395 l5 -221 -79 -54 c-44 -30 -93 -63 -108 -74 -165 -120 -324 -196 -536
-254 -82 -23 -167 -47 -189 -54 -85 -25 -163 -126 -239 -310 -8 -21 -20 -36
-26 -32 -5 3 -16 29 -25 58 -35 118 -66 182 -99 205 -59 40 -203 92 -324 117
-65 14 -145 34 -178 45 -32 12 -80 27 -106 36 -69 21 -272 109 -321 137 -83
49 -83 51 -91 194 -26 485 -49 704 -81 786 -12 29 24 21 177 -39z m2436 -503
c21 -11 68 -51 104 -89 52 -55 80 -98 135 -209 109 -215 201 -357 279 -428 6
-5 25 -33 42 -61 32 -50 32 -53 32 -176 0 -198 -25 -311 -120 -533 -49 -117
-136 -293 -155 -315 -7 -8 -16 -26 -20 -39 -8 -25 -83 -159 -136 -241 -16 -25
-34 -56 -41 -70 -29 -58 -105 -179 -142 -227 -23 -28 -57 -79 -76 -113 -19
-34 -49 -78 -66 -98 -45 -51 -33 -68 -170 238 -26 58 -55 128 -65 157 -25 74
-166 352 -234 463 -63 102 -93 144 -167 229 -27 30 -48 58 -48 62 0 5 -20 50
-45 101 -25 50 -52 110 -60 133 -39 109 -47 130 -66 168 -12 23 -28 50 -37 60
-20 23 -68 22 -81 -1 -5 -10 -33 -40 -61 -68 -63 -60 -76 -82 -60 -98 8 -8 30
8 85 66 48 50 79 76 89 72 15 -6 46 -73 46 -99 0 -8 -30 -31 -67 -51 -38 -20
-85 -47 -105 -60 -51 -33 -66 -30 -85 13 -8 21 -24 48 -34 62 -26 32 -24 65 7
131 14 30 34 77 44 103 30 79 86 151 134 175 24 11 106 37 182 57 76 20 165
46 198 57 95 33 243 110 331 174 44 31 134 93 200 137 134 89 195 142 195 169
0 27 -14 22 -62 -22 -48 -44 -51 -45 -67 -27 -12 16 -27 177 -18 201 10 24
136 22 185 -3z m-5773 -320 c67 -18 87 -40 148 -166 19 -38 67 -119 107 -180
l72 -110 -5 -340 c-3 -187 -8 -348 -12 -357 -4 -10 -59 -43 -121 -74 -63 -31
-127 -66 -142 -79 -15 -12 -43 -30 -62 -40 -108 -55 -321 -316 -376 -461 -16
-43 -45 -66 -53 -42 -18 59 -137 260 -208 354 -49 64 -109 145 -135 181 -25
36 -55 75 -65 86 -11 12 -36 45 -56 74 -90 128 -90 180 1 423 97 261 89 243
197 435 70 125 124 179 230 232 173 87 321 106 480 64z m8635 -136 c108 -69
310 -249 310 -277 0 -20 -64 -118 -150 -228 -75 -96 -170 -242 -230 -352 -58
-106 -81 -122 -102 -70 -6 15 -39 88 -74 163 -67 142 -72 167 -53 249 16 70
48 252 68 389 22 149 31 161 120 161 47 0 65 -6 111 -35z m-3930 -769 c0 -2
-7 -6 -15 -10 -8 -3 -15 -1 -15 4 0 6 7 10 15 10 8 0 15 -2 15 -4z m-595 -58
c15 -6 11 -7 -14 -3 -18 3 -44 5 -58 5 -14 0 -22 4 -18 11 7 10 52 4 90 -13z
m505 2 c-40 -22 -54 -25 -45 -9 8 12 43 28 65 28 8 0 -1 -8 -20 -19z m-70 -30
c0 -5 -8 -10 -17 -10 -15 0 -16 2 -3 10 19 12 20 12 20 0z m302 -47 c21 -19
23 -33 5 -33 -22 0 -51 26 -43 38 10 16 16 15 38 -5z m-1066 -34 c7 -12 -51
-77 -61 -68 -3 3 2 22 10 42 15 36 37 48 51 26z m1084 -469 c47 -47 101 -108
120 -134 51 -72 118 -192 131 -237 7 -21 20 -46 31 -55 10 -10 18 -21 18 -25
0 -5 11 -32 24 -61 49 -107 116 -313 141 -432 18 -86 20 -207 3 -224 -18 -18
-82 -15 -101 6 -9 10 -26 40 -38 67 -12 28 -30 70 -41 95 -11 25 -32 70 -48
100 -61 121 -132 294 -150 367 -56 220 -171 515 -246 635 -13 21 -24 40 -24
43 0 16 105 -69 180 -145z m-965 89 c-9 -29 -42 -204 -60 -324 -32 -210 -43
-253 -85 -337 -46 -91 -96 -176 -149 -253 -19 -27 -59 -86 -89 -130 -56 -83
-207 -245 -229 -245 -25 0 -42 59 -62 219 -11 88 3 175 48 296 75 203 108 249
362 505 63 64 146 155 183 203 66 85 94 108 81 66z m8 -294 c-9 -19 -18 -33
-20 -32 -5 6 21 67 29 67 4 0 0 -16 -9 -35z m-625 -44 c50 -34 87 -56 115 -68
23 -10 27 -17 22 -35 -4 -13 -18 -34 -32 -47 -89 -85 -190 -332 -200 -488 -11
-167 32 -354 82 -361 11 -1 42 15 70 35 89 69 330 399 425 585 16 31 34 60 40
63 6 4 23 -1 38 -12 46 -30 66 -42 85 -49 9 -3 17 -13 17 -22 0 -8 -8 -24 -17
-35 -10 -10 -79 -120 -153 -243 -74 -123 -151 -244 -170 -269 -83 -109 -232
-285 -257 -305 -58 -45 -99 -39 -163 24 -111 110 -222 437 -224 661 -1 96 0
103 35 170 53 104 100 188 114 205 7 8 21 33 31 55 26 57 96 155 111 155 2 0
16 -8 31 -19z m2127 -278 c101 -228 126 -293 159 -418 40 -148 49 -225 36
-292 -27 -130 -166 -269 -280 -280 -39 -4 -51 0 -91 29 -40 28 -115 117 -206
244 -76 107 -211 433 -258 624 -14 56 -12 70 8 70 7 0 34 11 62 24 27 14 53
22 56 20 4 -2 17 -35 29 -72 22 -65 34 -93 94 -212 16 -30 57 -122 92 -203 71
-167 100 -212 143 -222 46 -10 110 12 121 41 38 98 -30 406 -149 681 -39 90
-39 110 -3 124 15 6 38 17 52 24 14 7 30 14 36 14 7 1 51 -88 99 -196z"/>
<path d="M10797 9761 c-81 -7 -99 -13 -210 -69 -106 -53 -200 -119 -275 -194
-36 -35 -99 -131 -136 -208 l-41 -85 -4 -160 c-4 -189 4 -234 68 -365 35 -73
59 -109 107 -155 90 -87 138 -126 202 -162 149 -83 189 -94 362 -94 151 -1
282 27 400 84 55 26 210 127 210 136 0 4 19 29 41 56 62 75 115 211 140 360 5
27 11 65 15 82 3 18 3 41 0 50 -11 27 -26 -3 -26 -52 0 -54 -16 -33 -29 39
-14 75 -14 136 -1 136 6 0 13 -13 17 -30 5 -29 23 -43 23 -17 -1 33 -24 105
-50 159 -17 33 -30 66 -30 73 0 7 -26 53 -58 101 -61 93 -166 190 -237 219
-18 8 -36 19 -40 24 -3 5 -40 23 -83 40 -90 34 -213 45 -365 32z m0 -31 c4
-15 15 -20 61 -22 33 -2 57 -8 60 -15 3 -10 -15 -13 -67 -13 -56 0 -71 3 -71
15 0 19 -21 19 -67 0 -58 -24 -63 -1 -7 28 60 31 84 33 91 7z m310 -8 c45 -10
183 -73 183 -84 0 -4 -5 -10 -10 -13 -12 -7 -1 -20 48 -54 46 -33 29 -46 -22
-16 -49 29 -64 32 -46 10 26 -32 -4 -37 -53 -9 -50 28 -56 38 -31 52 14 8 12
10 -11 16 -21 5 -31 3 -37 -9 -5 -8 -14 -13 -19 -9 -10 6 24 37 51 46 8 3 26
-3 39 -13 28 -22 51 -25 51 -6 0 13 -150 67 -188 67 -11 0 -24 5 -27 10 -3 6
-26 10 -51 10 -45 0 -61 16 -21 22 22 3 63 -2 144 -20z m-67 -36 c0 -18 -22
-26 -49 -19 -38 10 -20 28 32 32 9 0 17 -5 17 -13z m70 -26 c0 -5 -9 -10 -20
-10 -11 0 -20 5 -20 10 0 6 9 10 20 10 11 0 20 -4 20 -10z m-558 -32 c-7 -7
-12 -8 -12 -2 0 14 12 26 19 19 2 -3 -1 -11 -7 -17z m418 13 c0 -5 -44 -12
-98 -15 -148 -11 -149 -26 -2 -26 133 -1 211 -14 300 -49 173 -70 257 -168
347 -401 23 -61 25 -75 21 -211 l-3 -146 -42 -84 c-65 -130 -188 -245 -308
-287 -188 -65 -388 -52 -540 35 -44 25 -86 54 -93 65 -7 10 -19 18 -27 18 -7
0 -35 21 -62 48 -86 84 -182 307 -170 397 28 206 71 352 131 437 36 52 51 63
148 113 60 30 116 55 125 55 13 0 14 3 5 12 -8 8 -25 6 -68 -11 -56 -21 -78
-21 -57 0 6 6 39 21 74 34 55 20 83 24 192 24 70 1 127 -3 127 -8z m88 -19 c2
-7 -6 -12 -17 -12 -21 0 -27 11 -14 24 9 9 26 2 31 -12z m-578 -68 c0 -3 -25
-34 -56 -67 -30 -34 -75 -92 -100 -129 -24 -38 -52 -68 -60 -68 -13 0 -12 6 7
38 12 20 34 57 48 82 41 74 161 181 161 144z m950 -85 c0 -5 -4 -9 -10 -9 -5
0 -10 7 -10 16 0 8 5 12 10 9 6 -3 10 -10 10 -16z m110 -105 c0 -8 -5 -12 -10
-9 -6 4 -8 11 -5 16 9 14 15 11 15 -7z m-1210 -88 c0 -2 -7 -23 -16 -47 -8
-24 -22 -87 -30 -139 -17 -114 -23 -132 -35 -125 -19 12 -9 135 17 213 14 42
30 82 36 89 10 12 28 18 28 9z m-90 -75 c0 -20 -27 -48 -37 -37 -8 7 17 56 29
56 4 0 8 -8 8 -19z m1370 4 c0 -8 -4 -15 -10 -15 -5 0 -10 7 -10 15 0 8 5 15
10 15 6 0 10 -7 10 -15z m-1400 -120 c0 -8 -7 -15 -15 -15 -8 0 -15 7 -15 15
0 8 7 15 15 15 8 0 15 -7 15 -15z m0 -104 c0 -16 -7 -34 -15 -41 -8 -7 -15
-21 -15 -31 0 -24 -19 -34 -26 -14 -4 9 1 24 10 34 9 10 16 32 16 49 0 22 5
32 15 32 10 0 15 -10 15 -29z m80 -121 c7 -28 16 -53 21 -56 5 -3 9 -12 9 -21
0 -22 38 -99 70 -145 26 -36 155 -148 170 -148 9 0 22 -31 16 -37 -13 -13
-121 70 -198 152 -40 42 -93 148 -112 223 -20 77 -20 82 -2 82 9 0 19 -20 26
-50z m1350 -16 c0 -8 -7 -14 -15 -14 -15 0 -21 21 -9 33 10 9 24 -2 24 -19z
m-1434 -42 c4 -21 3 -32 -5 -32 -15 0 -34 49 -26 68 8 21 23 4 31 -36z m1334
-117 c0 -42 -82 -147 -167 -214 -54 -44 -200 -121 -227 -121 -33 0 -14 16 62
50 48 21 100 55 138 90 34 30 72 62 85 71 13 9 40 44 59 77 35 62 50 75 50 47z
m-1290 -4 c0 -5 9 -7 19 -4 15 4 34 -14 82 -72 104 -126 212 -191 402 -240 37
-10 67 -22 67 -26 0 -14 -66 -10 -97 5 -15 8 -50 19 -76 25 -65 15 -163 63
-219 108 -44 36 -75 72 -115 135 -10 16 -27 28 -38 28 -12 0 -26 5 -33 12 -15
15 -16 38 -2 38 6 0 10 -4 10 -9z m50 -91 c0 -5 -4 -10 -10 -10 -5 0 -10 5
-10 10 0 6 5 10 10 10 6 0 10 -4 10 -10z m344 -245 c11 -8 31 -15 45 -15 29
-1 68 -26 58 -37 -4 -4 -22 -1 -40 5 -19 7 -39 12 -46 12 -19 0 -61 31 -55 41
7 12 16 11 38 -6z m441 -5 c-3 -5 -15 -10 -26 -10 -10 0 -19 5 -19 10 0 6 12
10 26 10 14 0 23 -4 19 -10z m-145 -20 c0 -5 -20 -10 -44 -10 -25 0 -48 5 -51
10 -4 6 13 10 44 10 28 0 51 -4 51 -10z"/>
<path d="M11200 9602 c0 -5 9 -12 21 -15 13 -3 19 -1 16 6 -5 15 -37 22 -37 9z"/>
<path d="M6859 9705 c-84 -14 -292 -110 -364 -168 -73 -58 -146 -145 -199
-234 -78 -132 -94 -177 -105 -292 -19 -200 19 -382 108 -524 62 -98 219 -244
318 -295 81 -42 113 -51 113 -32 0 6 -11 10 -25 10 -14 0 -29 8 -35 20 -10 19
-9 20 16 14 19 -5 31 -2 38 8 13 18 66 33 66 18 0 -5 -5 -10 -11 -10 -14 0
-43 -71 -32 -80 13 -11 80 -27 192 -46 99 -17 107 -17 195 0 167 33 395 118
431 161 5 6 29 26 53 44 52 40 84 86 151 217 41 81 57 124 73 210 20 98 20
116 9 208 -18 145 -38 218 -87 325 -86 184 -159 258 -333 337 -42 19 -85 39
-96 45 -31 15 -153 49 -230 65 -82 16 -142 16 -246 -1z m210 -14 c2 -1 -2 -8
-9 -16 -20 -24 -150 -16 -150 9 0 9 23 11 78 10 42 -1 79 -3 81 -3z m-199 -30
c0 -5 -10 -11 -22 -13 -43 -6 -27 -23 24 -24 72 -3 148 -17 151 -29 1 -5 -16
-13 -38 -16 -22 -4 -55 -10 -72 -14 -36 -8 -46 7 -15 24 14 9 11 10 -17 11
-38 0 -84 -13 -149 -41 -45 -20 -82 -25 -82 -11 0 13 102 62 129 62 14 0 21 3
17 8 -4 4 -16 7 -27 7 -10 0 -18 5 -17 10 3 22 118 47 118 26z m270 -1 c0 -5
-7 -10 -15 -10 -8 0 -15 5 -15 10 0 6 7 10 15 10 8 0 15 -4 15 -10z m30 -65
c0 -11 -12 -15 -50 -15 -46 0 -60 7 -43 23 3 4 26 7 50 7 32 0 43 -4 43 -15z
m-340 -45 c0 -5 -4 -10 -10 -10 -5 0 -10 5 -10 10 0 6 5 10 10 10 6 0 10 -4
10 -10z m336 -4 c168 -26 272 -74 360 -168 32 -35 72 -87 87 -115 54 -101 72
-302 42 -468 -31 -171 -83 -284 -190 -409 -5 -7 -57 -36 -115 -64 -97 -48
-247 -92 -315 -92 -32 0 -52 -17 -38 -31 10 -10 21 -8 52 5 23 11 48 15 60 11
25 -8 18 -25 -10 -25 -10 0 -19 -5 -19 -11 0 -18 154 7 185 30 5 4 30 14 55
21 95 29 201 114 276 221 21 30 43 60 50 66 7 7 14 18 16 24 2 7 9 10 15 8 7
-3 -2 -31 -24 -76 -33 -67 -69 -108 -169 -190 -59 -49 -240 -125 -327 -138
-65 -10 -177 3 -177 20 0 17 -22 25 -73 25 -39 1 -41 2 -23 15 11 8 28 15 38
15 10 0 18 4 18 9 0 10 -83 21 -88 12 -11 -24 -21 -33 -32 -26 -10 6 -9 11 5
21 14 11 15 14 4 18 -8 2 -34 9 -59 17 -71 20 -209 134 -285 234 -43 57 -104
189 -122 265 -22 95 -12 256 23 356 35 103 65 146 159 233 106 99 218 154 365
180 133 23 146 24 256 7z m350 -27 c68 -44 150 -132 173 -187 15 -35 6 -58
-11 -29 -5 10 -22 33 -37 50 -15 18 -37 47 -50 65 -12 18 -36 39 -52 48 -29
15 -30 15 -20 -5 16 -28 14 -33 -9 -19 -13 9 -18 19 -14 35 5 18 -1 25 -35 43
-41 21 -54 40 -26 40 9 0 45 -19 81 -41z m-946 12 c0 -6 -19 -25 -41 -43 -23
-18 -66 -55 -95 -82 -76 -69 -68 -34 9 40 83 81 127 110 127 85z m60 -1 c0 -5
-4 -10 -9 -10 -6 0 -13 5 -16 10 -3 6 1 10 9 10 9 0 16 -4 16 -10z m104 1 c8
-12 -31 -44 -44 -36 -8 5 -6 13 6 26 19 21 30 24 38 10z m-84 -49 c0 -13 -49
-36 -57 -28 -5 4 1 14 11 22 22 15 46 19 46 6z m-97 -74 c-18 -18 -36 -29 -39
-25 -10 10 36 57 55 57 11 0 6 -10 -16 -32z m-88 -18 c3 -5 1 -10 -4 -10 -6 0
-11 5 -11 10 0 6 2 10 4 10 3 0 8 -4 11 -10z m20 -40 c3 -5 1 -10 -4 -10 -6 0
-11 5 -11 10 0 6 2 10 4 10 3 0 8 -4 11 -10z m-100 -50 c3 -5 1 -10 -4 -10 -6
0 -11 5 -11 10 0 6 2 10 4 10 3 0 8 -4 11 -10z m1344 -49 c43 -60 96 -315 93
-446 -2 -74 -53 -249 -87 -299 -14 -21 -36 -59 -49 -84 -38 -74 -206 -221
-206 -180 0 7 18 24 40 38 44 27 144 149 180 220 13 25 36 87 52 138 26 84 29
108 30 231 0 141 -16 230 -63 338 -18 42 -24 73 -15 73 3 0 14 -13 25 -29z
m-1359 13 c0 -4 -8 -21 -19 -38 -10 -17 -24 -49 -31 -71 -7 -22 -16 -44 -21
-49 -15 -16 -10 -73 6 -80 12 -4 15 -26 15 -105 0 -91 -2 -100 -20 -106 -24
-8 -24 -9 -5 -71 8 -28 11 -52 6 -57 -13 -13 -26 18 -46 107 -33 147 -4 340
66 434 27 37 49 53 49 36z m10 -79 c0 -8 -4 -15 -10 -15 -5 0 -10 7 -10 15 0
8 5 15 10 15 6 0 10 -7 10 -15z m-50 -115 c0 -5 -4 -10 -10 -10 -5 0 -10 5
-10 10 0 6 5 10 10 10 6 0 10 -4 10 -10z m1380 -288 c0 -37 -24 -116 -45 -148
-28 -44 -34 -16 -10 53 13 38 26 80 29 96 8 36 26 35 26 -1z m-1380 -27 c0 -8
-4 -15 -10 -15 -5 0 -10 7 -10 15 0 8 5 15 10 15 6 0 10 -7 10 -15z m25 -63
c0 -18 -20 -15 -23 4 -3 10 1 15 10 12 7 -3 13 -10 13 -16z m-28 -59 c3 -10
13 -26 20 -35 14 -16 10 -38 -6 -38 -10 0 -41 61 -41 79 0 18 20 13 27 -6z
m60 -20 c7 -15 11 -29 8 -31 -8 -8 -32 17 -38 38 -8 30 16 24 30 -7z m76 -126
c31 -48 68 -85 144 -144 49 -37 16 -37 -35 1 -81 59 -162 157 -162 196 0 19
19 0 53 -53z m-98 -8 c22 -42 9 -51 -21 -14 -28 35 -30 45 -9 45 8 0 22 -14
30 -31z m153 -159 c20 -16 48 -38 62 -49 14 -11 22 -22 18 -26 -8 -9 -138 81
-138 96 0 17 21 9 58 -21z m902 -5 c0 -19 -57 -55 -87 -55 -13 0 -23 -4 -23
-10 0 -5 -8 -10 -18 -10 -10 0 -23 -5 -28 -10 -14 -14 -82 -18 -86 -5 -2 6 15
12 37 15 37 5 156 59 180 81 14 14 25 11 25 -6z m-770 -75 c0 -5 -5 -10 -11
-10 -5 0 -7 5 -4 10 3 6 8 10 11 10 2 0 4 -4 4 -10z m230 -76 c0 -17 -22 -14
-28 4 -2 7 3 12 12 12 9 0 16 -7 16 -16z m-70 -4 c0 -5 -4 -10 -10 -10 -5 0
-10 5 -10 10 0 6 5 10 10 10 6 0 10 -4 10 -10z"/>
<path d="M6270 8915 c0 -43 4 -75 10 -75 6 0 10 32 10 75 0 43 -4 75 -10 75
-6 0 -10 -32 -10 -75z"/>
<path d="M9010 7501 c0 -61 14 -101 36 -101 13 0 15 5 9 23 -4 12 -10 46 -12
75 -3 36 -9 52 -19 52 -10 0 -14 -14 -14 -49z"/>
<path d="M9594 5981 c-44 -15 -121 -50 -170 -76 -399 -213 -462 -232 -662
-201 -122 19 -207 44 -251 76 -16 11 -33 20 -38 20 -4 0 -66 28 -138 61 -233
110 -252 118 -298 129 -75 16 -172 -25 -259 -112 -58 -58 -114 -183 -129 -288
-26 -189 51 -394 180 -474 68 -42 210 -84 306 -90 136 -9 1714 -10 1840 -1 95
6 118 11 168 38 66 34 105 79 145 164 25 54 27 67 27 184 l-1 126 -47 98 c-54
111 -74 139 -172 240 -45 46 -91 82 -130 101 -54 26 -71 29 -175 31 -104 3
-123 0 -196 -26z m334 -31 c45 -16 72 -35 128 -92 209 -213 272 -442 178 -638
-29 -61 -75 -114 -117 -137 -49 -25 -266 -32 -692 -21 -246 6 -543 6 -770 1
-480 -11 -595 -5 -695 36 -117 49 -153 75 -194 137 -40 60 -58 109 -76 211
-12 71 4 181 41 284 39 107 150 205 252 223 46 8 94 -8 275 -95 70 -33 150
-70 177 -82 28 -11 66 -31 86 -44 35 -23 80 -40 129 -48 14 -2 45 -10 70 -16
25 -6 97 -12 160 -13 126 -1 108 -6 320 87 63 27 121 55 129 61 38 30 206 112
291 142 88 31 226 33 308 4z"/>
<path d="M16422 3068 c-35 -29 -112 -98 -171 -153 -58 -55 -147 -135 -196
-178 -50 -43 -208 -196 -352 -340 -279 -278 -286 -288 -245 -335 l17 -21 69
24 c38 14 97 40 131 60 186 104 546 203 743 205 65 0 72 2 72 20 0 18 -7 20
-79 20 -196 0 -568 -100 -747 -202 -77 -43 -173 -78 -180 -66 -8 13 394 417
566 571 69 61 168 152 221 201 52 50 123 114 157 141 48 39 62 56 62 78 0 15
-1 27 -3 27 -1 0 -31 -24 -65 -52z"/>
<path d="M6654 2440 c-22 -10 -78 -41 -123 -69 -46 -28 -86 -51 -91 -51 -16 0
-33 -31 -23 -41 8 -8 17 -5 31 9 22 22 199 117 270 145 23 9 42 19 42 22 0 12
-68 2 -106 -15z"/>
<path d="M10900 2099 c0 -7 10 -24 23 -38 23 -25 107 -161 176 -283 32 -58 48
-75 58 -64 11 11 -82 179 -186 336 -35 52 -71 77 -71 49z"/>
<path d="M13290 2041 c0 -5 6 -11 14 -14 28 -11 136 -99 147 -120 6 -12 33
-44 59 -72 94 -97 207 -258 280 -394 43 -82 70 -111 70 -76 0 25 -112 216
-192 327 -83 114 -286 322 -337 344 -39 17 -41 17 -41 5z"/>
<path d="M16395 1810 c-49 -25 -162 -68 -250 -97 -245 -78 -232 -75 -505 -153
-46 -13 -86 -32 -103 -48 -32 -30 -73 -113 -106 -214 -55 -168 -282 -579 -421
-762 -85 -112 -189 -256 -200 -275 -15 -29 -13 -66 12 -168 14 -59 27 -93 35
-93 17 0 17 49 -2 125 -23 94 -21 102 54 205 63 87 84 114 156 206 110 140
352 583 409 746 36 105 71 181 92 200 11 9 53 26 94 38 41 12 111 32 155 45
44 12 105 31 135 40 372 120 525 179 536 209 16 41 -2 40 -91 -4z"/>
<path d="M6929 1762 c-62 -41 -169 -125 -169 -133 0 -5 -7 -9 -15 -9 -8 0 -15
-4 -15 -10 0 -5 3 -10 8 -10 14 1 234 155 234 165 -1 16 -15 15 -43 -3z"/>
<path d="M700 1392 c0 -11 14 -25 33 -35 51 -26 120 -68 146 -88 13 -11 29
-19 35 -19 7 0 49 -18 94 -40 133 -64 412 -150 687 -211 104 -23 128 -40 199
-140 92 -128 122 -194 151 -334 39 -184 160 -525 186 -525 14 0 11 12 -22 102
-59 158 -108 320 -134 441 -14 67 -38 146 -54 178 -39 78 -115 191 -165 242
-38 40 -49 45 -141 66 -55 13 -134 34 -176 46 -42 13 -117 33 -167 45 -108 25
-239 69 -320 106 -150 69 -222 106 -279 143 -34 23 -65 41 -68 41 -3 0 -5 -8
-5 -18z"/>
<path d="M3725 1226 c-88 -40 -271 -289 -351 -477 -66 -157 -101 -289 -75
-289 10 0 31 77 31 113 0 20 42 120 70 167 5 8 25 45 43 81 51 100 182 273
266 350 73 67 77 82 16 55z"/>
<path d="M10260 1101 c0 -14 153 -121 235 -166 39 -21 79 -44 90 -51 11 -8 26
-14 33 -14 22 0 8 22 -24 41 -16 9 -63 36 -104 59 -41 23 -91 54 -110 69 -90
67 -120 83 -120 62z"/>
<path d="M7148 874 c-103 -105 -126 -134 -111 -134 16 0 234 228 225 234 -6 3
-57 -41 -114 -100z"/>
<path d="M10888 881 c-28 -47 -105 -176 -126 -211 -33 -54 -182 -350 -182
-362 0 -23 37 26 77 102 22 41 44 84 50 95 6 11 26 52 44 90 18 39 49 95 69
125 20 30 49 81 63 112 15 31 32 60 37 63 13 8 13 25 1 25 -5 0 -20 -18 -33
-39z"/>
<path d="M7655 217 c-75 -43 -245 -188 -245 -209 0 -20 26 -3 95 62 41 39 78
70 82 70 4 1 31 21 58 45 48 43 52 56 10 32z"/>
</g>
</svg>
